<svg xmlns="http://www.w3.org/2000/svg" version="1.1" xmlns:xlink="http://www.w3.org/1999/xlink" width="300" height="300"><svg width="300" height="300" viewBox="0 0 300 300" fill="none" xmlns="http://www.w3.org/2000/svg">
<rect width="300" height="300" rx="50" fill="black"></rect>
<path d="M183.159 113.909C182.307 106.712 178.85 101.125 172.79 97.1477C166.729 93.1705 159.295 91.1818 150.489 91.1818C144.049 91.1818 138.415 92.2235 133.585 94.3068C128.803 96.3901 125.063 99.2547 122.364 102.901C119.712 106.546 118.386 110.689 118.386 115.33C118.386 119.212 119.31 122.55 121.156 125.344C123.05 128.09 125.465 130.386 128.401 132.233C131.336 134.032 134.414 135.524 137.634 136.707C140.853 137.844 143.812 138.767 146.511 139.477L161.284 143.455C165.072 144.449 169.286 145.822 173.926 147.574C178.614 149.326 183.088 151.717 187.349 154.747C191.658 157.73 195.209 161.565 198.003 166.253C200.796 170.94 202.193 176.693 202.193 183.511C202.193 191.371 200.134 198.473 196.014 204.818C191.942 211.163 185.976 216.205 178.116 219.946C170.304 223.687 160.811 225.557 149.636 225.557C139.22 225.557 130.2 223.876 122.577 220.514C115.001 217.152 109.035 212.465 104.679 206.452C100.37 200.438 97.9318 193.455 97.3636 185.5H115.545C116.019 190.992 117.866 195.538 121.085 199.136C124.352 202.687 128.472 205.339 133.443 207.091C138.462 208.795 143.86 209.648 149.636 209.648C156.36 209.648 162.397 208.559 167.747 206.381C173.098 204.155 177.335 201.078 180.46 197.148C183.585 193.17 185.148 188.53 185.148 183.227C185.148 178.398 183.798 174.468 181.099 171.438C178.401 168.407 174.849 165.945 170.446 164.051C166.043 162.157 161.284 160.5 156.17 159.08L138.273 153.966C126.909 150.699 117.913 146.035 111.284 139.974C104.655 133.914 101.341 125.983 101.341 116.182C101.341 108.038 103.543 100.936 107.946 94.875C112.397 88.767 118.363 84.0322 125.844 80.6705C133.372 77.2614 141.777 75.5568 151.057 75.5568C160.432 75.5568 168.765 77.2377 176.057 80.5994C183.348 83.9138 189.125 88.4593 193.386 94.2358C197.695 100.012 199.968 106.57 200.205 113.909H183.159ZM241.096 224.136C237.592 224.136 234.585 222.882 232.076 220.372C229.567 217.863 228.312 214.856 228.312 211.352C228.312 207.848 229.567 204.842 232.076 202.332C234.585 199.823 237.592 198.568 241.096 198.568C244.6 198.568 247.606 199.823 250.116 202.332C252.625 204.842 253.88 207.848 253.88 211.352C253.88 213.672 253.288 215.803 252.104 217.744C250.968 219.686 249.429 221.248 247.488 222.432C245.594 223.568 243.463 224.136 241.096 224.136Z" fill="white"></path>
</svg><style>@media (prefers-color-scheme: light) { :root { filter: none; } }
@media (prefers-color-scheme: dark) { :root { filter: none; } }
</style></svg>